 <svg xmlns="http://www.w3.org/2000/svg" xmlns:xlink="http://www.w3.org/1999/xlink" version="1.1" x="0px" y="0px" viewBox="0 0 100 100" enable-background="new 0 0 100 100" xml:space="preserve"><g display="none"><rect x="5" y="4.917" display="inline" fill="#000000" stroke="#39A935" stroke-width="0.2632" stroke-miterlimit="10" width="7.5" height="7.5"></rect><rect x="12.5" y="4.917" display="inline" fill="#000000" stroke="#39A935" stroke-width="0.2632" stroke-miterlimit="10" width="7.5" height="7.5"></rect><rect x="20" y="4.916" display="inline" fill="#000000" stroke="#39A935" stroke-width="0.2632" stroke-miterlimit="10" width="7.5" height="7.5"></rect><rect x="27.5" y="4.916" display="inline" fill="#000000" stroke="#39A935" stroke-width="0.2632" stroke-miterlimit="10" width="7.5" height="7.5"></rect><rect x="35" y="4.916" display="inline" fill="#000000" stroke="#39A935" stroke-width="0.2632" stroke-miterlimit="10" width="7.5" height="7.5"></rect><rect x="42.5" y="4.916" display="inline" fill="#000000" stroke="#39A935" stroke-width="0.2632" stroke-miterlimit="10" width="7.5" height="7.5"></rect><rect x="50" y="4.916" display="inline" fill="#000000" stroke="#39A935" stroke-width="0.2632" stroke-miterlimit="10" width="7.5" height="7.5"></rect><rect x="57.5" y="4.916" display="inline" fill="#000000" stroke="#39A935" stroke-width="0.2632" stroke-miterlimit="10" width="7.5" height="7.5"></rect><rect x="65" y="4.916" display="inline" fill="#000000" stroke="#39A935" stroke-width="0.2632" stroke-miterlimit="10" width="7.5" height="7.5"></rect><rect x="72.5" y="4.916" display="inline" fill="#000000" stroke="#39A935" stroke-width="0.2632" stroke-miterlimit="10" width="7.5" height="7.5"></rect><rect x="80" y="4.917" display="inline" fill="#000000" stroke="#39A935" stroke-width="0.2632" stroke-miterlimit="10" width="7.5" height="7.5"></rect><rect x="87.5" y="4.917" display="inline" fill="#000000" stroke="#39A935" stroke-width="0.2632" stroke-miterlimit="10" width="7.5" height="7.5"></rect><rect x="5" y="12.417" display="inline" fill="#000000" stroke="#39A935" stroke-width="0.2632" stroke-miterlimit="10" width="7.5" height="7.5"></rect><rect x="12.5" y="12.417" display="inline" fill="#000000" stroke="#39A935" stroke-width="0.2632" stroke-miterlimit="10" width="7.5" height="7.5"></rect><rect x="20" y="12.417" display="inline" fill="#000000" stroke="#39A935" stroke-width="0.2632" stroke-miterlimit="10" width="7.5" height="7.5"></rect><rect x="27.5" y="12.417" display="inline" fill="#000000" stroke="#39A935" stroke-width="0.2632" stroke-miterlimit="10" width="7.5" height="7.5"></rect><rect x="35" y="12.417" display="inline" fill="#000000" stroke="#39A935" stroke-width="0.2632" stroke-miterlimit="10" width="7.5" height="7.5"></rect><rect x="42.5" y="12.417" display="inline" fill="#000000" stroke="#39A935" stroke-width="0.2632" stroke-miterlimit="10" width="7.5" height="7.5"></rect><rect x="50" y="12.417" display="inline" fill="#000000" stroke="#39A935" stroke-width="0.2632" stroke-miterlimit="10" width="7.5" height="7.5"></rect><rect x="57.5" y="12.417" display="inline" fill="#000000" stroke="#39A935" stroke-width="0.2632" stroke-miterlimit="10" width="7.5" height="7.5"></rect><rect x="65" y="12.417" display="inline" fill="#000000" stroke="#39A935" stroke-width="0.2632" stroke-miterlimit="10" width="7.5" height="7.5"></rect><rect x="72.5" y="12.417" display="inline" fill="#000000" stroke="#39A935" stroke-width="0.2632" stroke-miterlimit="10" width="7.5" height="7.5"></rect><rect x="80" y="12.417" display="inline" fill="#000000" stroke="#39A935" stroke-width="0.2632" stroke-miterlimit="10" width="7.5" height="7.5"></rect><rect x="87.5" y="12.417" display="inline" fill="#000000" stroke="#39A935" stroke-width="0.2632" stroke-miterlimit="10" width="7.5" height="7.5"></rect><rect x="5" y="19.916" display="inline" fill="#000000" stroke="#39A935" stroke-width="0.2632" stroke-miterlimit="10" width="7.5" height="7.5"></rect><rect x="12.5" y="19.917" display="inline" fill="#000000" stroke="#39A935" stroke-width="0.2632" stroke-miterlimit="10" width="7.5" height="7.5"></rect><rect x="20" y="19.917" display="inline" fill="#000000" stroke="#39A935" stroke-width="0.2632" stroke-miterlimit="10" width="7.5" height="7.5"></rect><rect x="27.5" y="19.917" display="inline" fill="#000000" stroke="#39A935" stroke-width="0.2632" stroke-miterlimit="10" width="7.5" height="7.5"></rect><rect x="35" y="19.917" display="inline" fill="#000000" stroke="#39A935" stroke-width="0.2632" stroke-miterlimit="10" width="7.5" height="7.5"></rect><rect x="42.5" y="19.917" display="inline" fill="#000000" stroke="#39A935" stroke-width="0.2632" stroke-miterlimit="10" width="7.5" height="7.5"></rect><rect x="50" y="19.917" display="inline" fill="#000000" stroke="#39A935" stroke-width="0.2632" stroke-miterlimit="10" width="7.5" height="7.5"></rect><rect x="57.5" y="19.917" display="inline" fill="#000000" stroke="#39A935" stroke-width="0.2632" stroke-miterlimit="10" width="7.5" height="7.5"></rect><rect x="65" y="19.917" display="inline" fill="#000000" stroke="#39A935" stroke-width="0.2632" stroke-miterlimit="10" width="7.5" height="7.5"></rect><rect x="72.5" y="19.917" display="inline" fill="#000000" stroke="#39A935" stroke-width="0.2632" stroke-miterlimit="10" width="7.5" height="7.5"></rect><rect x="80" y="19.917" display="inline" fill="#000000" stroke="#39A935" stroke-width="0.2632" stroke-miterlimit="10" width="7.5" height="7.5"></rect><rect x="87.5" y="19.916" display="inline" fill="#000000" stroke="#39A935" stroke-width="0.2632" stroke-miterlimit="10" width="7.5" height="7.5"></rect><rect x="5" y="27.416" display="inline" fill="#000000" stroke="#39A935" stroke-width="0.2632" stroke-miterlimit="10" width="7.5" height="7.5"></rect><rect x="12.5" y="27.417" display="inline" fill="#000000" stroke="#39A935" stroke-width="0.2632" stroke-miterlimit="10" width="7.5" height="7.5"></rect><rect x="20" y="27.417" display="inline" fill="#000000" stroke="#39A935" stroke-width="0.2632" stroke-miterlimit="10" width="7.5" height="7.5"></rect><rect x="27.5" y="27.417" display="inline" fill="#000000" stroke="#39A935" stroke-width="0.2632" stroke-miterlimit="10" width="7.5" height="7.5"></rect><rect x="35" y="27.417" display="inline" fill="#000000" stroke="#39A935" stroke-width="0.2632" stroke-miterlimit="10" width="7.5" height="7.5"></rect><rect x="42.5" y="27.417" display="inline" fill="#000000" stroke="#39A935" stroke-width="0.2632" stroke-miterlimit="10" width="7.5" height="7.5"></rect><rect x="50" y="27.417" display="inline" fill="#000000" stroke="#39A935" stroke-width="0.2632" stroke-miterlimit="10" width="7.5" height="7.5"></rect><rect x="57.5" y="27.417" display="inline" fill="#000000" stroke="#39A935" stroke-width="0.2632" stroke-miterlimit="10" width="7.5" height="7.5"></rect><rect x="65" y="27.417" display="inline" fill="#000000" stroke="#39A935" stroke-width="0.2632" stroke-miterlimit="10" width="7.5" height="7.5"></rect><rect x="72.5" y="27.417" display="inline" fill="#000000" stroke="#39A935" stroke-width="0.2632" stroke-miterlimit="10" width="7.5" height="7.5"></rect><rect x="80" y="27.417" display="inline" fill="#000000" stroke="#39A935" stroke-width="0.2632" stroke-miterlimit="10" width="7.5" height="7.5"></rect><rect x="87.5" y="27.416" display="inline" fill="#000000" stroke="#39A935" stroke-width="0.2632" stroke-miterlimit="10" width="7.5" height="7.5"></rect><rect x="5" y="34.916" display="inline" fill="#000000" stroke="#39A935" stroke-width="0.2632" stroke-miterlimit="10" width="7.5" height="7.5"></rect><rect x="12.5" y="34.917" display="inline" fill="#000000" stroke="#39A935" stroke-width="0.2632" stroke-miterlimit="10" width="7.5" height="7.5"></rect><rect x="20" y="34.917" display="inline" fill="#000000" stroke="#39A935" stroke-width="0.2632" stroke-miterlimit="10" width="7.5" height="7.5"></rect><rect x="27.5" y="34.917" display="inline" fill="#000000" stroke="#39A935" stroke-width="0.2632" stroke-miterlimit="10" width="7.5" height="7.5"></rect><rect x="35" y="34.917" display="inline" fill="#000000" stroke="#39A935" stroke-width="0.2632" stroke-miterlimit="10" width="7.5" height="7.5"></rect><rect x="42.5" y="34.917" display="inline" fill="#000000" stroke="#39A935" stroke-width="0.2632" stroke-miterlimit="10" width="7.5" height="7.5"></rect><rect x="50" y="34.917" display="inline" fill="#000000" stroke="#39A935" stroke-width="0.2632" stroke-miterlimit="10" width="7.5" height="7.5"></rect><rect x="57.5" y="34.917" display="inline" fill="#000000" stroke="#39A935" stroke-width="0.2632" stroke-miterlimit="10" width="7.5" height="7.5"></rect><rect x="65" y="34.917" display="inline" fill="#000000" stroke="#39A935" stroke-width="0.2632" stroke-miterlimit="10" width="7.5" height="7.5"></rect><rect x="72.5" y="34.917" display="inline" fill="#000000" stroke="#39A935" stroke-width="0.2632" stroke-miterlimit="10" width="7.5" height="7.5"></rect><rect x="80" y="34.917" display="inline" fill="#000000" stroke="#39A935" stroke-width="0.2632" stroke-miterlimit="10" width="7.5" height="7.5"></rect><rect x="87.5" y="34.916" display="inline" fill="#000000" stroke="#39A935" stroke-width="0.2632" stroke-miterlimit="10" width="7.5" height="7.5"></rect><rect x="5" y="42.416" display="inline" fill="#000000" stroke="#39A935" stroke-width="0.2632" stroke-miterlimit="10" width="7.5" height="7.5"></rect><rect x="12.5" y="42.417" display="inline" fill="#000000" stroke="#39A935" stroke-width="0.2632" stroke-miterlimit="10" width="7.5" height="7.5"></rect><rect x="20" y="42.417" display="inline" fill="#000000" stroke="#39A935" stroke-width="0.2632" stroke-miterlimit="10" width="7.5" height="7.5"></rect><rect x="27.5" y="42.417" display="inline" fill="#000000" stroke="#39A935" stroke-width="0.2632" stroke-miterlimit="10" width="7.5" height="7.5"></rect><rect x="35" y="42.417" display="inline" fill="#000000" stroke="#39A935" stroke-width="0.2632" stroke-miterlimit="10" width="7.5" height="7.5"></rect><rect x="42.5" y="42.417" display="inline" fill="#000000" stroke="#39A935" stroke-width="0.2632" stroke-miterlimit="10" width="7.5" height="7.5"></rect><rect x="50" y="42.417" display="inline" fill="#000000" stroke="#39A935" stroke-width="0.2632" stroke-miterlimit="10" width="7.5" height="7.5"></rect><rect x="57.5" y="42.417" display="inline" fill="#000000" stroke="#39A935" stroke-width="0.2632" stroke-miterlimit="10" width="7.5" height="7.5"></rect><rect x="65" y="42.417" display="inline" fill="#000000" stroke="#39A935" stroke-width="0.2632" stroke-miterlimit="10" width="7.5" height="7.5"></rect><rect x="72.5" y="42.417" display="inline" fill="#000000" stroke="#39A935" stroke-width="0.2632" stroke-miterlimit="10" width="7.5" height="7.5"></rect><rect x="80" y="42.417" display="inline" fill="#000000" stroke="#39A935" stroke-width="0.2632" stroke-miterlimit="10" width="7.5" height="7.5"></rect><rect x="87.5" y="42.416" display="inline" fill="#000000" stroke="#39A935" stroke-width="0.2632" stroke-miterlimit="10" width="7.5" height="7.5"></rect><rect x="5" y="49.916" display="inline" fill="#000000" stroke="#39A935" stroke-width="0.2632" stroke-miterlimit="10" width="7.5" height="7.5"></rect><rect x="12.5" y="49.917" display="inline" fill="#000000" stroke="#39A935" stroke-width="0.2632" stroke-miterlimit="10" width="7.5" height="7.5"></rect><rect x="20" y="49.917" display="inline" fill="#000000" stroke="#39A935" stroke-width="0.2632" stroke-miterlimit="10" width="7.5" height="7.5"></rect><rect x="27.5" y="49.917" display="inline" fill="#000000" stroke="#39A935" stroke-width="0.2632" stroke-miterlimit="10" width="7.5" height="7.5"></rect><rect x="35" y="49.917" display="inline" fill="#000000" stroke="#39A935" stroke-width="0.2632" stroke-miterlimit="10" width="7.5" height="7.5"></rect><rect x="42.5" y="49.917" display="inline" fill="#000000" stroke="#39A935" stroke-width="0.2632" stroke-miterlimit="10" width="7.5" height="7.5"></rect><rect x="50" y="49.917" display="inline" fill="#000000" stroke="#39A935" stroke-width="0.2632" stroke-miterlimit="10" width="7.5" height="7.5"></rect><rect x="57.5" y="49.917" display="inline" fill="#000000" stroke="#39A935" stroke-width="0.2632" stroke-miterlimit="10" width="7.5" height="7.5"></rect><rect x="65" y="49.917" display="inline" fill="#000000" stroke="#39A935" stroke-width="0.2632" stroke-miterlimit="10" width="7.5" height="7.5"></rect><rect x="72.5" y="49.917" display="inline" fill="#000000" stroke="#39A935" stroke-width="0.2632" stroke-miterlimit="10" width="7.5" height="7.5"></rect><rect x="80" y="49.917" display="inline" fill="#000000" stroke="#39A935" stroke-width="0.2632" stroke-miterlimit="10" width="7.5" height="7.5"></rect><rect x="87.5" y="49.916" display="inline" fill="#000000" stroke="#39A935" stroke-width="0.2632" stroke-miterlimit="10" width="7.5" height="7.5"></rect><rect x="5" y="57.416" display="inline" fill="#000000" stroke="#39A935" stroke-width="0.2632" stroke-miterlimit="10" width="7.5" height="7.5"></rect><rect x="12.5" y="57.417" display="inline" fill="#000000" stroke="#39A935" stroke-width="0.2632" stroke-miterlimit="10" width="7.5" height="7.5"></rect><rect x="20" y="57.417" display="inline" fill="#000000" stroke="#39A935" stroke-width="0.2632" stroke-miterlimit="10" width="7.5" height="7.5"></rect><rect x="27.5" y="57.417" display="inline" fill="#000000" stroke="#39A935" stroke-width="0.2632" stroke-miterlimit="10" width="7.5" height="7.5"></rect><rect x="35" y="57.417" display="inline" fill="#000000" stroke="#39A935" stroke-width="0.2632" stroke-miterlimit="10" width="7.5" height="7.5"></rect><rect x="42.5" y="57.417" display="inline" fill="#000000" stroke="#39A935" stroke-width="0.2632" stroke-miterlimit="10" width="7.5" height="7.5"></rect><rect x="50" y="57.417" display="inline" fill="#000000" stroke="#39A935" stroke-width="0.2632" stroke-miterlimit="10" width="7.5" height="7.5"></rect><rect x="57.5" y="57.417" display="inline" fill="#000000" stroke="#39A935" stroke-width="0.2632" stroke-miterlimit="10" width="7.5" height="7.5"></rect><rect x="65" y="57.417" display="inline" fill="#000000" stroke="#39A935" stroke-width="0.2632" stroke-miterlimit="10" width="7.5" height="7.5"></rect><rect x="72.5" y="57.417" display="inline" fill="#000000" stroke="#39A935" stroke-width="0.2632" stroke-miterlimit="10" width="7.5" height="7.5"></rect><rect x="80" y="57.417" display="inline" fill="#000000" stroke="#39A935" stroke-width="0.2632" stroke-miterlimit="10" width="7.5" height="7.5"></rect><rect x="87.5" y="57.416" display="inline" fill="#000000" stroke="#39A935" stroke-width="0.2632" stroke-miterlimit="10" width="7.5" height="7.5"></rect><rect x="5" y="64.916" display="inline" fill="#000000" stroke="#39A935" stroke-width="0.2632" stroke-miterlimit="10" width="7.5" height="7.5"></rect><rect x="12.5" y="64.917" display="inline" fill="#000000" stroke="#39A935" stroke-width="0.2632" stroke-miterlimit="10" width="7.5" height="7.5"></rect><rect x="20" y="64.917" display="inline" fill="#000000" stroke="#39A935" stroke-width="0.2632" stroke-miterlimit="10" width="7.5" height="7.5"></rect><rect x="27.5" y="64.917" display="inline" fill="#000000" stroke="#39A935" stroke-width="0.2632" stroke-miterlimit="10" width="7.5" height="7.5"></rect><rect x="35" y="64.917" display="inline" fill="#000000" stroke="#39A935" stroke-width="0.2632" stroke-miterlimit="10" width="7.5" height="7.5"></rect><rect x="42.5" y="64.917" display="inline" fill="#000000" stroke="#39A935" stroke-width="0.2632" stroke-miterlimit="10" width="7.5" height="7.5"></rect><rect x="50" y="64.917" display="inline" fill="#000000" stroke="#39A935" stroke-width="0.2632" stroke-miterlimit="10" width="7.5" height="7.5"></rect><rect x="57.5" y="64.917" display="inline" fill="#000000" stroke="#39A935" stroke-width="0.2632" stroke-miterlimit="10" width="7.5" height="7.5"></rect><rect x="65" y="64.917" display="inline" fill="#000000" stroke="#39A935" stroke-width="0.2632" stroke-miterlimit="10" width="7.5" height="7.5"></rect><rect x="72.5" y="64.917" display="inline" fill="#000000" stroke="#39A935" stroke-width="0.2632" stroke-miterlimit="10" width="7.5" height="7.5"></rect><rect x="80" y="64.917" display="inline" fill="#000000" stroke="#39A935" stroke-width="0.2632" stroke-miterlimit="10" width="7.5" height="7.5"></rect><rect x="87.5" y="64.916" display="inline" fill="#000000" stroke="#39A935" stroke-width="0.2632" stroke-miterlimit="10" width="7.5" height="7.5"></rect><rect x="5" y="72.416" display="inline" fill="#000000" stroke="#39A935" stroke-width="0.2632" stroke-miterlimit="10" width="7.5" height="7.5"></rect><rect x="12.5" y="72.417" display="inline" fill="#000000" stroke="#39A935" stroke-width="0.2632" stroke-miterlimit="10" width="7.5" height="7.5"></rect><rect x="20" y="72.417" display="inline" fill="#000000" stroke="#39A935" stroke-width="0.2632" stroke-miterlimit="10" width="7.5" height="7.5"></rect><rect x="27.5" y="72.417" display="inline" fill="#000000" stroke="#39A935" stroke-width="0.2632" stroke-miterlimit="10" width="7.5" height="7.5"></rect><rect x="35" y="72.417" display="inline" fill="#000000" stroke="#39A935" stroke-width="0.2632" stroke-miterlimit="10" width="7.5" height="7.5"></rect><rect x="42.5" y="72.417" display="inline" fill="#000000" stroke="#39A935" stroke-width="0.2632" stroke-miterlimit="10" width="7.5" height="7.5"></rect><rect x="50" y="72.417" display="inline" fill="#000000" stroke="#39A935" stroke-width="0.2632" stroke-miterlimit="10" width="7.5" height="7.5"></rect><rect x="57.5" y="72.417" display="inline" fill="#000000" stroke="#39A935" stroke-width="0.2632" stroke-miterlimit="10" width="7.5" height="7.5"></rect><rect x="65" y="72.417" display="inline" fill="#000000" stroke="#39A935" stroke-width="0.2632" stroke-miterlimit="10" width="7.5" height="7.5"></rect><rect x="72.5" y="72.417" display="inline" fill="#000000" stroke="#39A935" stroke-width="0.2632" stroke-miterlimit="10" width="7.5" height="7.5"></rect><rect x="80" y="72.417" display="inline" fill="#000000" stroke="#39A935" stroke-width="0.2632" stroke-miterlimit="10" width="7.5" height="7.5"></rect><rect x="87.5" y="72.416" display="inline" fill="#000000" stroke="#39A935" stroke-width="0.2632" stroke-miterlimit="10" width="7.5" height="7.5"></rect><rect x="5" y="79.917" display="inline" fill="#000000" stroke="#39A935" stroke-width="0.2632" stroke-miterlimit="10" width="7.5" height="7.5"></rect><rect x="12.5" y="79.917" display="inline" fill="#000000" stroke="#39A935" stroke-width="0.2632" stroke-miterlimit="10" width="7.5" height="7.5"></rect><rect x="20" y="79.917" display="inline" fill="#000000" stroke="#39A935" stroke-width="0.2632" stroke-miterlimit="10" width="7.5" height="7.5"></rect><rect x="27.5" y="79.917" display="inline" fill="#000000" stroke="#39A935" stroke-width="0.2632" stroke-miterlimit="10" width="7.5" height="7.5"></rect><rect x="35" y="79.917" display="inline" fill="#000000" stroke="#39A935" stroke-width="0.2632" stroke-miterlimit="10" width="7.5" height="7.5"></rect><rect x="42.5" y="79.917" display="inline" fill="#000000" stroke="#39A935" stroke-width="0.2632" stroke-miterlimit="10" width="7.5" height="7.5"></rect><rect x="50" y="79.917" display="inline" fill="#000000" stroke="#39A935" stroke-width="0.2632" stroke-miterlimit="10" width="7.5" height="7.5"></rect><rect x="57.5" y="79.917" display="inline" fill="#000000" stroke="#39A935" stroke-width="0.2632" stroke-miterlimit="10" width="7.5" height="7.5"></rect><rect x="65" y="79.917" display="inline" fill="#000000" stroke="#39A935" stroke-width="0.2632" stroke-miterlimit="10" width="7.5" height="7.5"></rect><rect x="72.5" y="79.917" display="inline" fill="#000000" stroke="#39A935" stroke-width="0.2632" stroke-miterlimit="10" width="7.5" height="7.5"></rect><rect x="80" y="79.917" display="inline" fill="#000000" stroke="#39A935" stroke-width="0.2632" stroke-miterlimit="10" width="7.5" height="7.5"></rect><rect x="87.5" y="79.917" display="inline" fill="#000000" stroke="#39A935" stroke-width="0.2632" stroke-miterlimit="10" width="7.5" height="7.5"></rect><rect x="5" y="87.417" display="inline" fill="#000000" stroke="#39A935" stroke-width="0.2632" stroke-miterlimit="10" width="7.5" height="7.5"></rect><rect x="12.5" y="87.417" display="inline" fill="#000000" stroke="#39A935" stroke-width="0.2632" stroke-miterlimit="10" width="7.5" height="7.5"></rect><rect x="20" y="87.416" display="inline" fill="#000000" stroke="#39A935" stroke-width="0.2632" stroke-miterlimit="10" width="7.5" height="7.5"></rect><rect x="27.5" y="87.416" display="inline" fill="#000000" stroke="#39A935" stroke-width="0.2632" stroke-miterlimit="10" width="7.5" height="7.5"></rect><rect x="35" y="87.416" display="inline" fill="#000000" stroke="#39A935" stroke-width="0.2632" stroke-miterlimit="10" width="7.5" height="7.5"></rect><rect x="42.5" y="87.416" display="inline" fill="#000000" stroke="#39A935" stroke-width="0.2632" stroke-miterlimit="10" width="7.5" height="7.5"></rect><rect x="50" y="87.416" display="inline" fill="#000000" stroke="#39A935" stroke-width="0.2632" stroke-miterlimit="10" width="7.5" height="7.5"></rect><rect x="57.5" y="87.416" display="inline" fill="#000000" stroke="#39A935" stroke-width="0.2632" stroke-miterlimit="10" width="7.5" height="7.5"></rect><rect x="65" y="87.416" display="inline" fill="#000000" stroke="#39A935" stroke-width="0.2632" stroke-miterlimit="10" width="7.5" height="7.5"></rect><rect x="72.5" y="87.416" display="inline" fill="#000000" stroke="#39A935" stroke-width="0.2632" stroke-miterlimit="10" width="7.5" height="7.5"></rect><rect x="80" y="87.417" display="inline" fill="#000000" stroke="#39A935" stroke-width="0.2632" stroke-miterlimit="10" width="7.5" height="7.5"></rect><rect x="87.5" y="87.417" display="inline" fill="#000000" stroke="#39A935" stroke-width="0.2632" stroke-miterlimit="10" width="7.5" height="7.5"></rect><line display="inline" fill="#000000" stroke="#39A935" stroke-width="0.2632" stroke-miterlimit="10" x1="5" y1="4.917" x2="95" y2="94.917"></line><line display="inline" fill="#000000" stroke="#39A935" stroke-width="0.2632" stroke-miterlimit="10" x1="20" y1="4.917" x2="95" y2="79.917"></line><line display="inline" fill="#000000" stroke="#39A935" stroke-width="0.2632" stroke-miterlimit="10" x1="35" y1="4.917" x2="95" y2="64.917"></line><line display="inline" fill="#000000" stroke="#39A935" stroke-width="0.2632" stroke-miterlimit="10" x1="50" y1="4.917" x2="95" y2="49.917"></line><line display="inline" fill="#000000" stroke="#39A935" stroke-width="0.2632" stroke-miterlimit="10" x1="65" y1="4.917" x2="95" y2="34.917"></line><line display="inline" fill="#000000" stroke="#39A935" stroke-width="0.2632" stroke-miterlimit="10" x1="80" y1="4.917" x2="95" y2="19.917"></line><line display="inline" fill="#000000" stroke="#39A935" stroke-width="0.2632" stroke-miterlimit="10" x1="5" y1="19.917" x2="80" y2="94.917"></line><line display="inline" fill="#000000" stroke="#39A935" stroke-width="0.2632" stroke-miterlimit="10" x1="5" y1="34.917" x2="65" y2="94.917"></line><line display="inline" fill="#000000" stroke="#39A935" stroke-width="0.2632" stroke-miterlimit="10" x1="5" y1="49.917" x2="50" y2="94.917"></line><line display="inline" fill="#000000" stroke="#39A935" stroke-width="0.2632" stroke-miterlimit="10" x1="5" y1="64.917" x2="35" y2="94.917"></line><line display="inline" fill="#000000" stroke="#39A935" stroke-width="0.2632" stroke-miterlimit="10" x1="5" y1="79.917" x2="20" y2="94.917"></line><line display="inline" fill="#000000" stroke="#39A935" stroke-width="0.2632" stroke-miterlimit="10" x1="95" y1="4.917" x2="5" y2="94.917"></line><line display="inline" fill="#000000" stroke="#39A935" stroke-width="0.2632" stroke-miterlimit="10" x1="80" y1="4.917" x2="5" y2="79.917"></line><line display="inline" fill="#000000" stroke="#39A935" stroke-width="0.2632" stroke-miterlimit="10" x1="65" y1="4.917" x2="5" y2="64.917"></line><line display="inline" fill="#000000" stroke="#39A935" stroke-width="0.2632" stroke-miterlimit="10" x1="50" y1="4.917" x2="5" y2="49.917"></line><line display="inline" fill="#000000" stroke="#39A935" stroke-width="0.2632" stroke-miterlimit="10" x1="35" y1="4.917" x2="5" y2="34.917"></line><line display="inline" fill="#000000" stroke="#39A935" stroke-width="0.2632" stroke-miterlimit="10" x1="20" y1="4.917" x2="5" y2="19.917"></line><line display="inline" fill="#000000" stroke="#39A935" stroke-width="0.2632" stroke-miterlimit="10" x1="95" y1="19.917" x2="20" y2="94.917"></line><line display="inline" fill="#000000" stroke="#39A935" stroke-width="0.2632" stroke-miterlimit="10" x1="95" y1="34.917" x2="35" y2="94.917"></line><line display="inline" fill="#000000" stroke="#39A935" stroke-width="0.2632" stroke-miterlimit="10" x1="95" y1="49.917" x2="50" y2="94.917"></line><line display="inline" fill="#000000" stroke="#39A935" stroke-width="0.2632" stroke-miterlimit="10" x1="95" y1="64.917" x2="65" y2="94.917"></line><line display="inline" fill="#000000" stroke="#39A935" stroke-width="0.2632" stroke-miterlimit="10" x1="95" y1="79.917" x2="80" y2="94.917"></line><g display="inline"><g><path fill="#000000" stroke="#E20613" stroke-width="0.2632" stroke-miterlimit="10" d="M95,27.076v45.681     c-0.788,1.568-1.656,3.091-2.6,4.56c-0.567,0.886-1.163,1.754-1.784,2.6C89.64,81.249,88.6,82.532,87.5,83.76     c-0.574,0.644-1.165,1.272-1.772,1.884c-0.602,0.605-1.218,1.196-1.849,1.772c-1.237,1.13-2.532,2.198-3.879,3.2     c-0.825,0.614-1.67,1.205-2.533,1.767c-1.398,0.916-2.844,1.761-4.333,2.533H26.867c-1.489-0.772-2.935-1.618-4.333-2.533     C21.67,91.821,20.825,91.23,20,90.616c-1.347-1.002-2.642-2.07-3.879-3.2c-0.632-0.575-1.247-1.167-1.849-1.772     c-0.607-0.612-1.198-1.24-1.772-1.884c-1.1-1.228-2.14-2.511-3.116-3.844c-0.621-0.846-1.218-1.714-1.784-2.6     c-0.944-1.468-1.812-2.991-2.6-4.56V27.076c0.789-1.568,1.658-3.091,2.6-4.56c0.568-0.886,1.163-1.754,1.784-2.6     c0.975-1.333,2.016-2.614,3.116-3.842c0.574-0.644,1.165-1.272,1.774-1.884c0.602-0.607,1.218-1.198,1.849-1.774     C17.36,11.288,18.655,10.22,20,9.218c0.825-0.614,1.67-1.205,2.533-1.768c1.398-0.914,2.846-1.761,4.337-2.533h46.26     c1.491,0.772,2.939,1.619,4.337,2.533C78.33,8.013,79.175,8.604,80,9.218c1.346,1.002,2.64,2.07,3.877,3.198     c0.632,0.575,1.247,1.167,1.849,1.774c0.609,0.612,1.2,1.24,1.774,1.884c1.1,1.228,2.14,2.509,3.116,3.842     c0.621,0.846,1.216,1.714,1.784,2.6C93.342,23.985,94.211,25.507,95,27.076z"></path><path fill="#000000" stroke="#E20613" stroke-width="0.2632" stroke-miterlimit="10" d="M94.099,49.917     C94.099,25.432,74.375,5.618,50,5.618S5.9,25.432,5.9,49.917S25.625,94.215,50,94.215S94.099,74.402,94.099,49.917z"></path><path fill="#000000" stroke="#E20613" stroke-width="0.2632" stroke-miterlimit="10" d="M50,87.887     c-20.893,0-37.8-16.983-37.8-37.97s16.906-37.97,37.8-37.97s37.8,16.983,37.8,37.97S70.893,87.887,50,87.887z"></path><path fill="#000000" stroke="#E20613" stroke-width="0.2632" stroke-miterlimit="10" d="M81.499,49.917     c0-17.489-14.089-31.642-31.5-31.642S18.5,32.427,18.5,49.917S32.589,81.558,50,81.558S81.499,67.406,81.499,49.917z"></path><path fill="#000000" stroke="#E20613" stroke-width="0.2632" stroke-miterlimit="10" d="M50,75.23     c-13.929,0-25.2-11.322-25.2-25.313S36.071,24.603,50,24.603s25.2,11.322,25.2,25.313S63.929,75.23,50,75.23z"></path><path fill="#000000" stroke="#E20613" stroke-width="0.2632" stroke-miterlimit="10" d="M68.9,49.917     c0-10.494-8.453-18.985-18.9-18.985s-18.9,8.491-18.9,18.985S39.553,68.902,50,68.902S68.9,60.41,68.9,49.917z"></path><path fill="#000000" stroke="#E20613" stroke-width="0.2632" stroke-miterlimit="10" d="M50,62.573c-6.964,0-12.6-5.661-12.6-12.657     S43.036,37.26,50,37.26s12.6,5.661,12.6,12.657S56.964,62.573,50,62.573z"></path><path fill="#000000" stroke="#E20613" stroke-width="0.2632" stroke-miterlimit="10" d="M56.3,49.917c0-3.498-2.818-6.328-6.3-6.328     s-6.3,2.83-6.3,6.328c0,3.498,2.818,6.328,6.3,6.328S56.3,53.415,56.3,49.917z"></path></g><g><polyline fill="#000000" stroke="#E20613" stroke-width="0.2632" stroke-miterlimit="10" points="50,94.916 50,94.214 50,87.886      50,87.416 50,81.558 50,79.916 50,75.23 50,72.416 50,68.902 50,64.916 50,62.574 50,57.416 50,56.246 50,49.916    "></polyline><polyline fill="#000000" stroke="#E20613" stroke-width="0.2632" stroke-miterlimit="10" points="95,49.916 94.1,49.916      87.8,49.916 87.5,49.916 81.5,49.916 80,49.916 75.2,49.916 72.5,49.916 68.9,49.916 65,49.916 62.6,49.916 57.5,49.916      56.3,49.916 50,49.916    "></polyline><polyline fill="#000000" stroke="#E20613" stroke-width="0.2632" stroke-miterlimit="10" points="50,4.916 50,5.618 50,11.946      50,12.416 50,18.276 50,19.916 50,24.604 50,27.416 50,30.932 50,34.916 50,37.26 50,42.416 50,43.588 50,49.916    "></polyline><polyline fill="#000000" stroke="#E20613" stroke-width="0.2632" stroke-miterlimit="10" points="5,49.916 5.9,49.916 12.2,49.916      12.5,49.916 18.5,49.916 20,49.916 24.8,49.916 27.5,49.916 31.1,49.916 35,49.916 37.4,49.916 42.5,49.916 43.7,49.916      50,49.916    "></polyline></g></g></g><g><path d="M68.318,50.05l2.201-0.835l0.002-0.027c0.008-0.006,0.019-0.012,0.025-0.019l12.68-12.68l0.002,0.002l2.584-2.588   l5.813-5.813c0.556-0.558,0.945-1.881,0.335-2.518l-1.193-1.55c-0.004-0.004-0.008-0.008-0.012-0.012l-1.143-1.302   c-0.006-0.008-0.017-0.017-0.025-0.025l-1.251-1.096c-0.004-0.004-0.008-0.008-0.014-0.012l-1.519-1.158   c-0.201-0.192-0.486-0.294-0.823-0.294c-0.556,0-1.244,0.285-1.641,0.682l-7.63,7.63L63.646,41.498   c-0.031,0.031-0.054,0.068-0.066,0.107l-0.25,0.25l-0.893,2.313l-8.583-8.583L5.422,35.496l40.137,40.135l0.17,0.172l48.432,0.091   L68.318,50.05z M84.735,21.201c0.254-0.254,0.79-0.517,1.244-0.517c0.196,0,0.345,0.048,0.44,0.145   c0.01,0.008,0.019,0.017,0.029,0.023l1.526,1.164l1.23,1.077l1.125,1.28l1.197,1.557c0.006,0.01,0.014,0.019,0.023,0.027   c0.337,0.335,0.095,1.323-0.32,1.738l-3.338,3.338l-6.487-6.499L84.735,21.201z M81.043,24.964l6.449,6.464l-1.302,1.304   l-6.443-6.47L81.043,24.964z M77.922,28.091l6.441,6.468l-1.137,1.137l-6.445-6.462L77.922,28.091z M76.345,29.592l6.487,6.501   L70.604,48.32l0.13-1.383l-2.332-0.622l-0.967-1.544l-1.933-0.393v-3.159l-0.889,0.103L76.345,29.592z M62.869,44.601l0.941-2.433   l0.211-0.211l0.872-0.101v2.76c0,0.058,0.019,0.112,0.05,0.157v0.062l0.083,0.019c0.027,0.017,0.058,0.029,0.093,0.035l1.92,0.391   l0.899,1.435c0.037,0.06,0.097,0.103,0.165,0.122l1.98,0.529l-0.138,1.47l-2.059,0.783l-1.203,0.455l-2.658,1.011l-1.501-3.148   l-1.156,0.552l1.04-2.689L62.869,44.601z M8.258,36.674l45.111,0.085l8.605,8.605l-3.214,8.318l8.357-3.175l24.21,24.21   l-45.111-0.085L8.258,36.674z M25.461,41.333c-0.45-0.275-0.875-0.535-1.328-0.672c-0.633-0.191-1.368-0.095-2.016,0.264   c-0.648,0.359-1.119,0.931-1.292,1.57l-1.131-0.307c0.256-0.942,0.932-1.776,1.855-2.288c0.923-0.512,1.989-0.643,2.923-0.361   c0.596,0.18,1.107,0.492,1.6,0.793c0.227,0.139,0.441,0.27,0.661,0.386c1.09,0.58,2.366,0.816,3.591,0.665   c0.781-0.096,1.549-0.34,2.362-0.599c1.307-0.415,2.657-0.845,4.088-0.621c0.757,0.118,1.449,0.41,2.119,0.693   c0.756,0.319,1.471,0.62,2.208,0.645c0.921,0.029,1.812-0.37,2.753-0.794c0.482-0.217,0.98-0.441,1.497-0.612   c2.332-0.771,5.014-0.349,6.997,1.099l-0.691,0.947c-1.684-1.229-3.959-1.586-5.939-0.933c-0.459,0.152-0.908,0.354-1.383,0.568   c-0.982,0.442-1.996,0.899-3.133,0.899c-0.047,0-0.094-0.001-0.141-0.002c-0.953-0.032-1.802-0.39-2.624-0.736   c-0.632-0.267-1.229-0.518-1.844-0.615c-1.158-0.181-2.321,0.189-3.552,0.58c-0.828,0.263-1.685,0.536-2.574,0.645   c-1.462,0.18-2.984-0.102-4.285-0.794C25.932,41.62,25.693,41.474,25.461,41.333z M58.031,43.819l0.11,1.167   c-4.352,0.412-8.772,0.473-13.135,0.181l-0.13-0.009c-0.867-0.058-1.687-0.114-2.462,0.063c-0.273,0.062-0.545,0.154-0.833,0.252   c-0.423,0.143-0.86,0.291-1.337,0.355c-0.904,0.121-1.758-0.083-2.584-0.279c-0.606-0.144-1.178-0.28-1.743-0.286   c-0.773-0.007-1.533,0.223-2.342,0.468c-0.855,0.259-1.737,0.529-2.685,0.519c-0.674-0.006-1.313-0.152-1.932-0.294   c-0.584-0.134-1.136-0.26-1.683-0.265c-0.599-0.001-1.27,0.278-1.622,0.689c-0.196,0.229-0.275,0.473-0.234,0.725l-1.157,0.189   c-0.096-0.591,0.082-1.187,0.501-1.676c0.573-0.669,1.551-1.098,2.496-1.098c0.008,0,0.016,0,0.025,0   c0.675,0.005,1.316,0.152,1.936,0.294c0.583,0.134,1.134,0.26,1.68,0.265c0.761,0.006,1.528-0.224,2.335-0.468   c0.858-0.26,1.74-0.528,2.695-0.518c0.696,0.008,1.359,0.165,2.001,0.318c0.756,0.18,1.469,0.349,2.158,0.258   c0.364-0.049,0.729-0.172,1.116-0.303c0.303-0.103,0.617-0.209,0.948-0.285c0.943-0.215,1.887-0.151,2.801-0.089l0.129,0.009   C49.384,44.285,53.74,44.225,58.031,43.819z M33.081,50.076c-0.251-0.153-0.488-0.297-0.719-0.393   c-1.509-0.626-3.249,0.622-4.596,1.779l-0.764-0.889c1.601-1.376,3.709-2.844,5.809-1.973c0.315,0.131,0.602,0.306,0.88,0.475   c0.48,0.293,0.895,0.545,1.283,0.476c0.401-0.072,0.7-0.476,1.046-0.944c0.282-0.381,0.573-0.774,0.979-1.075   c1.282-0.949,3.046-0.624,5.243,0.966c1.739,1.258,3.04,1.595,3.865,0.999c0.204-0.147,0.39-0.363,0.586-0.592   c0.315-0.368,0.673-0.785,1.208-1.011c1.169-0.494,2.19,0.184,3.091,0.783c0.542,0.36,1.102,0.732,1.639,0.82l-0.188,1.157   c-0.787-0.128-1.455-0.571-2.1-1c-0.867-0.576-1.426-0.917-1.986-0.68c-0.281,0.119-0.51,0.386-0.775,0.695   c-0.232,0.271-0.472,0.551-0.79,0.78c-1.282,0.923-3.043,0.587-5.237-1.001c-1.736-1.256-3.034-1.584-3.859-0.974   c-0.265,0.197-0.493,0.504-0.734,0.83c-0.432,0.585-0.922,1.247-1.782,1.401C34.354,50.852,33.678,50.439,33.081,50.076z    M53.977,51.796c1.154,0.166,2.19,0.642,3.191,1.102l-0.489,1.065c-0.926-0.425-1.882-0.865-2.869-1.007   c-1.022-0.147-1.956,0.072-2.561,0.603c-0.144,0.127-0.28,0.279-0.424,0.44c-0.162,0.182-0.33,0.37-0.529,0.545   c-1.065,0.933-2.722,1.084-3.939,0.36c-0.231-0.137-0.432-0.294-0.626-0.445c-0.167-0.13-0.324-0.252-0.485-0.35   c-0.79-0.482-1.895-0.422-2.628,0.143c-0.164,0.126-0.328,0.283-0.502,0.448c-0.487,0.463-1.086,1.033-1.904,1.033   c-0.05,0-0.101-0.002-0.152-0.007c-0.483-0.041-0.864-0.275-1.201-0.482c-0.069-0.042-0.138-0.085-0.207-0.125   c-1.273-0.734-2.978-0.624-4.146,0.267l-0.711-0.931c1.533-1.17,3.771-1.315,5.442-0.351c0.078,0.045,0.156,0.093,0.234,0.141   c0.248,0.152,0.481,0.296,0.687,0.313c0.347,0.03,0.666-0.248,1.15-0.708c0.188-0.179,0.383-0.364,0.595-0.527   c1.12-0.863,2.746-0.951,3.954-0.215c0.218,0.133,0.409,0.282,0.595,0.426c0.174,0.135,0.337,0.263,0.505,0.363   c0.78,0.464,1.884,0.363,2.567-0.235c0.145-0.127,0.282-0.28,0.427-0.443c0.161-0.181,0.328-0.367,0.526-0.541   C51.338,51.922,52.613,51.6,53.977,51.796z"></path></g></svg>